<?xml version="1.0" encoding="UTF-8" standalone="no"?>
<!-- Created with Inkscape (http://www.inkscape.org/) -->

<svg
   xmlns:dc="http://purl.org/dc/elements/1.1/"
   xmlns:cc="http://creativecommons.org/ns#"
   xmlns:rdf="http://www.w3.org/1999/02/22-rdf-syntax-ns#"
   xmlns:svg="http://www.w3.org/2000/svg"
   xmlns="http://www.w3.org/2000/svg"
   xmlns:sodipodi="http://sodipodi.sourceforge.net/DTD/sodipodi-0.dtd"
   xmlns:inkscape="http://www.inkscape.org/namespaces/inkscape"
   width="210mm"
   height="297mm"
   viewBox="0 0 744.09448819 1052.3622047"
   id="svg6619"
   version="1.1"
   inkscape:version="0.91 r13725"
   sodipodi:docname="itsbecky.svg">
  <defs
     id="defs6621" />
  <sodipodi:namedview
     id="base"
     pagecolor="#ffffff"
     bordercolor="#666666"
     borderopacity="1.0"
     inkscape:pageopacity="0.0"
     inkscape:pageshadow="2"
     inkscape:zoom="0.38076172"
     inkscape:cx="319.64085"
     inkscape:cy="476.4858"
     inkscape:document-units="px"
     inkscape:current-layer="layer1"
     showgrid="false"
     inkscape:window-width="1280"
     inkscape:window-height="687"
     inkscape:window-x="38"
     inkscape:window-y="11"
     inkscape:window-maximized="0" />
  <metadata
     id="metadata6624">
    <rdf:RDF>
      <cc:Work
         rdf:about="">
        <dc:format>image/svg+xml</dc:format>
        <dc:type
           rdf:resource="http://purl.org/dc/dcmitype/StillImage" />
        <dc:title></dc:title>
      </cc:Work>
    </rdf:RDF>
  </metadata>
  <g
     inkscape:label="Layer 1"
     inkscape:groupmode="layer"
     id="layer1">
    <rect
       style="fill:#ff9955;fill-opacity:1"
       id="rect7171"
       width="556.41101"
       height="427.12949"
       x="77.997559"
       y="552.8064"
       ry="3.5606906" />
    <path
       style="fill:#ff9955;fill-opacity:1"
       id="path7173"
       sodipodi:type="arc"
       sodipodi:cx="356.20444"
       sodipodi:cy="548.30908"
       sodipodi:rx="278.20645"
       sodipodi:ry="294.34793"
       sodipodi:start="0"
       sodipodi:end="6.1401032"
       sodipodi:open="true"
       d="M 634.41089,548.30908 A 278.20645,294.34793 0 0 1 366.15391,842.46872 278.20645,294.34793 0 0 1 78.70963,569.34908 278.20645,294.34793 0 0 1 326.40693,255.65435 278.20645,294.34793 0 0 1 631.56795,506.33672" />
    <path
       style="fill:#e5894c;fill-opacity:1"
       id="path7175"
       sodipodi:type="arc"
       sodipodi:cx="358.86115"
       sodipodi:cy="560.66272"
       sodipodi:rx="225.27646"
       sodipodi:ry="259.99185"
       sodipodi:start="0"
       sodipodi:end="6.1401032"
       sodipodi:open="true"
       d="M 584.1376,560.66272 A 225.27646,259.99185 0 0 1 366.91768,820.48826 225.27646,259.99185 0 0 1 134.16094,579.24695 225.27646,259.99185 0 0 1 334.73274,302.16644 225.27646,259.99185 0 0 1 581.83555,523.58934" />
    <path
       style="fill:#ffe6d5;fill-opacity:1"
       id="path7177"
       sodipodi:type="arc"
       sodipodi:cx="358.82767"
       sodipodi:cy="529.45081"
       sodipodi:rx="226.58875"
       sodipodi:ry="257.20624"
       sodipodi:start="0"
       sodipodi:end="6.1401032"
       sodipodi:open="true"
       d="M 585.41641,529.45081 A 226.58875,257.20624 0 0 1 366.93114,786.49251 226.58875,257.20624 0 0 1 132.81853,547.83592 226.58875,257.20624 0 0 1 334.55871,273.72411 226.58875,257.20624 0 0 1 583.10095,492.77464" />
    <rect
       style="fill:#ff9955;fill-opacity:1"
       id="rect7179"
       width="477.67358"
       height="98.425491"
       x="118.24113"
       y="407.52588"
       ry="2.5502238" />
    <rect
       style="fill:#ff9955;fill-opacity:1"
       id="rect7181"
       width="402.43567"
       height="70.569221"
       x="156.86961"
       y="352.24127"
       ry="1.7945994" />
    <rect
       style="fill:#ff9955;fill-opacity:1"
       id="rect7183"
       width="349.944"
       height="38.998779"
       x="186.48019"
       y="329.95624"
       ry="1.0148177" />
    <rect
       style="fill:#e5cfbf;fill-opacity:1"
       id="rect7185"
       width="451.42776"
       height="9.2854233"
       x="132.50818"
       y="500.80804"
       ry="0.74212855" />
    <rect
       style="fill:#ff9955;fill-opacity:1"
       id="rect7187"
       width="120.73068"
       height="70.569221"
       x="301.96173"
       y="268.67242"
       ry="1.7946" />
    <rect
       style="fill:#ff9955;fill-opacity:1"
       id="rect7192"
       width="69.988808"
       height="77.997559"
       x="265.21762"
       y="272.3866"
       ry="2.3554125" />
    <rect
       style="fill:#ff9955;fill-opacity:1"
       id="rect7194"
       width="15.74748"
       height="9.2854233"
       x="282.71484"
       y="309.52829"
       ry="1.7946" />
    <rect
       style="fill:#ff9955;fill-opacity:1"
       id="rect7196"
       width="59.490482"
       height="70.569221"
       x="406.94495"
       y="277.95786"
       ry="2.3554101" />
    <rect
       style="fill:#ff9955;fill-opacity:1"
       id="rect7198"
       width="57.740761"
       height="44.570034"
       x="216.22545"
       y="293.10037"
       ry="3.768656" />
    <rect
       style="fill:#ff9955;fill-opacity:1"
       id="rect7200"
       width="41.993282"
       height="27.856272"
       x="461.18628"
       y="302.09998"
       ry="3.7686601" />
    <path
       style="fill:#d0ab74;fill-opacity:1"
       id="path7202"
       sodipodi:type="arc"
       sodipodi:cx="373.09247"
       sodipodi:cy="588.63611"
       sodipodi:rx="3.7117169"
       sodipodi:ry="3.9394717"
       sodipodi:start="0"
       sodipodi:end="6.1401032"
       sodipodi:open="true"
       d="m 376.80419,588.63611 a 3.7117169,3.9394717 0 0 1 -3.57898,3.93695 3.7117169,3.9394717 0 0 1 -3.83496,-3.65536 3.7117169,3.9394717 0 0 1 3.30467,-4.1984 3.7117169,3.9394717 0 0 1 4.07134,3.35506" />
    <path
       style="fill:#d0ab74;fill-opacity:1"
       id="path7204"
       sodipodi:type="arc"
       sodipodi:cx="344.21698"
       sodipodi:cy="603.76764"
       sodipodi:rx="3.7117169"
       sodipodi:ry="3.9395001"
       sodipodi:start="0"
       sodipodi:end="6.1401032"
       sodipodi:open="true"
       d="m 347.9287,603.76764 a 3.7117169,3.9395001 0 0 1 -3.57898,3.93698 3.7117169,3.9395001 0 0 1 -3.83496,-3.65539 3.7117169,3.9395001 0 0 1 3.30467,-4.19843 3.7117169,3.9395001 0 0 1 4.07134,3.35509" />
    <path
       style="fill:#d0ab74;fill-opacity:1"
       id="path7206"
       sodipodi:type="arc"
       sodipodi:cx="393.8974"
       sodipodi:cy="618.83875"
       sodipodi:rx="3.7117169"
       sodipodi:ry="3.9394717"
       sodipodi:start="0"
       sodipodi:end="6.1401032"
       sodipodi:open="true"
       d="m 397.60912,618.83875 a 3.7117169,3.9394717 0 0 1 -3.57898,3.93695 3.7117169,3.9394717 0 0 1 -3.83496,-3.65536 3.7117169,3.9394717 0 0 1 3.30467,-4.19841 3.7117169,3.9394717 0 0 1 4.07134,3.35507" />
    <path
       style="fill:#d0ab74;fill-opacity:1"
       id="path7208"
       sodipodi:type="arc"
       sodipodi:cx="322.67944"
       sodipodi:cy="622.80847"
       sodipodi:rx="3.0931983"
       sodipodi:ry="3.2828929"
       sodipodi:start="0"
       sodipodi:end="6.1401032"
       sodipodi:open="true"
       d="m 325.77264,622.80847 a 3.0931983,3.2828929 0 0 1 -2.98257,3.28079 3.0931983,3.2828929 0 0 1 -3.19591,-3.04613 3.0931983,3.2828929 0 0 1 2.75398,-3.49867 3.0931983,3.2828929 0 0 1 3.39289,2.79589" />
    <path
       style="fill:#d0ab74;fill-opacity:1"
       id="path7210"
       sodipodi:type="arc"
       sodipodi:cx="421.37341"
       sodipodi:cy="600.54535"
       sodipodi:rx="3.0931983"
       sodipodi:ry="3.2828929"
       sodipodi:start="0"
       sodipodi:end="6.1401032"
       sodipodi:open="true"
       d="m 424.46661,600.54535 a 3.0931983,3.2828929 0 0 1 -2.98258,3.28079 3.0931983,3.2828929 0 0 1 -3.1959,-3.04613 3.0931983,3.2828929 0 0 1 2.75398,-3.49867 3.0931983,3.2828929 0 0 1 3.39289,2.79589" />
    <path
       style="fill:#d0ab74;fill-opacity:1"
       id="path7212"
       sodipodi:type="arc"
       sodipodi:cx="287.95114"
       sodipodi:cy="612.3335"
       sodipodi:rx="3.7117438"
       sodipodi:ry="3.9394717"
       sodipodi:start="0"
       sodipodi:end="6.1401032"
       sodipodi:open="true"
       d="m 291.66289,612.3335 a 3.7117438,3.9394717 0 0 1 -3.57901,3.93695 3.7117438,3.9394717 0 0 1 -3.83499,-3.65536 3.7117438,3.9394717 0 0 1 3.3047,-4.1984 3.7117438,3.9394717 0 0 1 4.07137,3.35506" />
    <path
       style="fill:#d0ab74;fill-opacity:1"
       id="path7214"
       sodipodi:type="arc"
       sodipodi:cx="449.8298"
       sodipodi:cy="634.9295"
       sodipodi:rx="3.0930974"
       sodipodi:ry="3.2828929"
       sodipodi:start="0"
       sodipodi:end="6.1401032"
       sodipodi:open="true"
       d="m 452.9229,634.9295 a 3.0930974,3.2828929 0 0 1 -2.98248,3.2808 3.0930974,3.2828929 0 0 1 -3.1958,-3.04613 3.0930974,3.2828929 0 0 1 2.75389,-3.49867 3.0930974,3.2828929 0 0 1 3.39278,2.79588" />
    <path
       style="fill:#d0ab74;fill-opacity:1"
       id="path7218"
       sodipodi:type="arc"
       sodipodi:cx="268.7739"
       sodipodi:cy="642.62689"
       sodipodi:rx="3.0930974"
       sodipodi:ry="3.2828929"
       sodipodi:start="0"
       sodipodi:end="6.1401032"
       sodipodi:open="true"
       d="m 271.86699,642.62689 a 3.0930974,3.2828929 0 0 1 -2.98248,3.28079 3.0930974,3.2828929 0 0 1 -3.1958,-3.04613 3.0930974,3.2828929 0 0 1 2.7539,-3.49867 3.0930974,3.2828929 0 0 1 3.39277,2.79589" />
  </g>
</svg>
